<svg width="19" height="15" viewBox="0 0 19 15" fill="none" xmlns="http://www.w3.org/2000/svg">
<path d="M15.0633 5.43605L14.8765 4.70986C14.7382 4.65454 14.5964 4.57846 14.4512 4.48163C14.306 4.38481 14.1849 4.28107 14.0881 4.17041L13.1752 4.50238L12.7602 3.77619L13.4864 3.19524C13.4587 3.12608 13.4345 3.05 13.4138 2.96701C13.393 2.88401 13.3827 2.80102 13.3827 2.71803C13.3827 2.63503 13.393 2.55204 13.4138 2.46905C13.4345 2.38605 13.4587 2.30998 13.4864 2.24082L12.7602 1.65986L13.1752 0.933674L14.0881 1.26565C14.1849 1.15499 14.306 1.04779 14.4512 0.944047C14.5964 0.840306 14.7382 0.767687 14.8765 0.72619L15.0633 0H15.8517L16.0384 0.72619C16.1768 0.767687 16.3185 0.840306 16.4638 0.944047C16.609 1.04779 16.73 1.15499 16.8269 1.26565L17.7398 0.933674L18.1548 1.65986L17.4286 2.24082C17.4562 2.30998 17.4804 2.38605 17.5012 2.46905C17.5219 2.55204 17.5323 2.63503 17.5323 2.71803C17.5323 2.80102 17.5219 2.88401 17.5012 2.96701C17.4804 3.05 17.4562 3.12608 17.4286 3.19524L18.1548 3.77619L17.7398 4.50238L16.8269 4.17041C16.73 4.28107 16.609 4.38481 16.4638 4.48163C16.3185 4.57846 16.1768 4.65454 16.0384 4.70986L15.8517 5.43605H15.0633ZM15.4575 3.92143C15.8033 3.92143 16.0903 3.80731 16.3185 3.57908C16.5468 3.35085 16.6609 3.06383 16.6609 2.71803C16.6609 2.37222 16.5468 2.0852 16.3185 1.85697C16.0903 1.62874 15.8033 1.51463 15.4575 1.51463C15.1117 1.51463 14.8247 1.62874 14.5964 1.85697C14.3682 2.0852 14.2541 2.37222 14.2541 2.71803C14.2541 3.06383 14.3682 3.35085 14.5964 3.57908C14.8247 3.80731 15.1117 3.92143 15.4575 3.92143ZM12.8224 9.93844L12.781 9.33673C12.6841 9.28141 12.5838 9.21916 12.4801 9.15C12.3764 9.08084 12.283 9.01168 12.2 8.94252L11.6605 9.23299L11.2041 8.56905L11.7435 8.17483C11.7159 8.1195 11.702 8.06763 11.702 8.01922C11.702 7.97081 11.702 7.91893 11.702 7.86361C11.702 7.80828 11.702 7.75641 11.702 7.70799C11.702 7.65958 11.7159 7.60771 11.7435 7.55238L11.2041 7.15816L11.6605 6.49422L12.2 6.78469C12.2968 6.71553 12.3937 6.64637 12.4905 6.57721C12.5873 6.50805 12.6841 6.44581 12.781 6.39048L12.8224 5.78878H13.6524L13.6939 6.39048C13.7907 6.44581 13.8875 6.50805 13.9844 6.57721C14.0812 6.64637 14.178 6.71553 14.2748 6.78469L14.8143 6.49422L15.2708 7.15816L14.7313 7.55238C14.759 7.60771 14.7728 7.65958 14.7728 7.70799C14.7728 7.75641 14.7728 7.80828 14.7728 7.86361C14.7728 7.91893 14.7728 7.97081 14.7728 8.01922C14.7728 8.06763 14.759 8.1195 14.7313 8.17483L15.2708 8.56905L14.8143 9.23299L14.2748 8.94252C14.1918 9.01168 14.0985 9.08084 13.9947 9.15C13.891 9.21916 13.7907 9.28141 13.6939 9.33673L13.6524 9.93844H12.8224ZM13.2374 8.65204C13.4587 8.65204 13.6455 8.57596 13.7976 8.42381C13.9498 8.27166 14.0259 8.08492 14.0259 7.86361C14.0259 7.64229 13.9498 7.45556 13.7976 7.3034C13.6455 7.15125 13.4587 7.07517 13.2374 7.07517C13.0161 7.07517 12.8294 7.15125 12.6772 7.3034C12.5251 7.45556 12.449 7.64229 12.449 7.86361C12.449 8.08492 12.5251 8.27166 12.6772 8.42381C12.8294 8.57596 13.0161 8.65204 13.2374 8.65204ZM6.55646 8.61054C5.64354 8.61054 4.8966 8.31315 4.31565 7.71837C3.73469 7.12358 3.44422 6.38356 3.44422 5.4983H3.23673C3.12608 5.4983 3.02925 5.4568 2.94626 5.37381C2.86327 5.29082 2.82177 5.19399 2.82177 5.08333C2.82177 4.97268 2.86327 4.87585 2.94626 4.79286C3.02925 4.70986 3.12608 4.66837 3.23673 4.66837H3.44422C3.44422 4.11508 3.58254 3.61712 3.85918 3.17449C4.13583 2.73186 4.49546 2.37222 4.9381 2.09558V2.90476C4.9381 2.98776 4.96922 3.06037 5.03146 3.12262C5.09371 3.18486 5.16633 3.21599 5.24932 3.21599C5.34615 3.21599 5.42222 3.18486 5.47755 3.12262C5.53288 3.06037 5.56054 2.98776 5.56054 2.90476V1.82585C5.6712 1.79819 5.82336 1.77398 6.01701 1.75323C6.21066 1.73248 6.39739 1.72211 6.57721 1.72211C6.75703 1.72211 6.94376 1.73248 7.13741 1.75323C7.33107 1.77398 7.48322 1.79819 7.59388 1.82585V2.90476C7.59388 2.98776 7.62154 3.06037 7.67687 3.12262C7.7322 3.18486 7.80828 3.21599 7.9051 3.21599C7.98809 3.21599 8.06071 3.18486 8.12296 3.12262C8.1852 3.06037 8.21633 2.98776 8.21633 2.90476V2.09558C8.65896 2.37222 9.01168 2.73186 9.27449 3.17449C9.5373 3.61712 9.66871 4.11508 9.66871 4.66837H9.87619C9.98685 4.66837 10.0837 4.70986 10.1667 4.79286C10.2497 4.87585 10.2912 4.97268 10.2912 5.08333C10.2912 5.19399 10.2497 5.29082 10.1667 5.37381C10.0837 5.4568 9.98685 5.4983 9.87619 5.4983H9.66871C9.66871 6.38356 9.37823 7.12358 8.79728 7.71837C8.21633 8.31315 7.46939 8.61054 6.55646 8.61054ZM6.55646 7.36565C7.13741 7.36565 7.59388 7.19274 7.92585 6.84694C8.25782 6.50113 8.42381 6.05159 8.42381 5.4983H4.68912C4.68912 6.05159 4.8551 6.50113 5.18707 6.84694C5.51905 7.19274 5.97551 7.36565 6.55646 7.36565ZM0 14.9388V13.0299C0 12.5596 0.110658 12.1689 0.331973 11.8577C0.553288 11.5464 0.864513 11.294 1.26565 11.1003C2.01259 10.7407 2.81139 10.4433 3.66208 10.2082C4.51276 9.97302 5.47755 9.85544 6.55646 9.85544C7.63537 9.85544 8.60017 9.97302 9.45085 10.2082C10.3015 10.4433 11.1003 10.7407 11.8473 11.1003C12.2484 11.294 12.5596 11.5464 12.781 11.8577C13.0023 12.1689 13.1129 12.5596 13.1129 13.0299V14.9388H0ZM1.2449 13.6939H11.868V13.0299C11.868 12.8224 11.8092 12.653 11.6917 12.5216C11.5741 12.3902 11.4323 12.2899 11.2663 12.2207C10.6715 11.9579 10.0076 11.7055 9.27449 11.4634C8.54138 11.2214 7.63537 11.1003 6.55646 11.1003C5.47755 11.1003 4.57154 11.2214 3.83844 11.4634C3.10533 11.7055 2.44138 11.9579 1.8466 12.2207C1.68061 12.2899 1.53883 12.3902 1.42126 12.5216C1.30368 12.653 1.2449 12.8224 1.2449 13.0299V13.6939Z" fill="#00102F"/>
</svg>
