<svg width="44" height="36" viewBox="0 0 44 36" fill="none" xmlns="http://www.w3.org/2000/svg">
<path d="M36.3 13.1L35.85 11.35C35.5167 11.2167 35.175 11.0333 34.825 10.8C34.475 10.5667 34.1833 10.3167 33.95 10.05L31.75 10.85L30.75 9.1L32.5 7.7C32.4333 7.53333 32.375 7.35 32.325 7.15C32.275 6.95 32.25 6.75 32.25 6.55C32.25 6.35 32.275 6.15 32.325 5.95C32.375 5.75 32.4333 5.56667 32.5 5.4L30.75 4L31.75 2.25L33.95 3.05C34.1833 2.78333 34.475 2.525 34.825 2.275C35.175 2.025 35.5167 1.85 35.85 1.75L36.3 0H38.2L38.65 1.75C38.9833 1.85 39.325 2.025 39.675 2.275C40.025 2.525 40.3167 2.78333 40.55 3.05L42.75 2.25L43.75 4L42 5.4C42.0667 5.56667 42.125 5.75 42.175 5.95C42.225 6.15 42.25 6.35 42.25 6.55C42.25 6.75 42.225 6.95 42.175 7.15C42.125 7.35 42.0667 7.53333 42 7.7L43.75 9.1L42.75 10.85L40.55 10.05C40.3167 10.3167 40.025 10.5667 39.675 10.8C39.325 11.0333 38.9833 11.2167 38.65 11.35L38.2 13.1H36.3ZM37.25 9.45C38.0833 9.45 38.775 9.175 39.325 8.625C39.875 8.075 40.15 7.38333 40.15 6.55C40.15 5.71667 39.875 5.025 39.325 4.475C38.775 3.925 38.0833 3.65 37.25 3.65C36.4167 3.65 35.725 3.925 35.175 4.475C34.625 5.025 34.35 5.71667 34.35 6.55C34.35 7.38333 34.625 8.075 35.175 8.625C35.725 9.175 36.4167 9.45 37.25 9.45ZM30.9 23.95L30.8 22.5C30.5667 22.3667 30.325 22.2167 30.075 22.05C29.825 21.8833 29.6 21.7167 29.4 21.55L28.1 22.25L27 20.65L28.3 19.7C28.2333 19.5667 28.2 19.4417 28.2 19.325C28.2 19.2083 28.2 19.0833 28.2 18.95C28.2 18.8167 28.2 18.6917 28.2 18.575C28.2 18.4583 28.2333 18.3333 28.3 18.2L27 17.25L28.1 15.65L29.4 16.35C29.6333 16.1833 29.8667 16.0167 30.1 15.85C30.3333 15.6833 30.5667 15.5333 30.8 15.4L30.9 13.95H32.9L33 15.4C33.2333 15.5333 33.4667 15.6833 33.7 15.85C33.9333 16.0167 34.1667 16.1833 34.4 16.35L35.7 15.65L36.8 17.25L35.5 18.2C35.5667 18.3333 35.6 18.4583 35.6 18.575C35.6 18.6917 35.6 18.8167 35.6 18.95C35.6 19.0833 35.6 19.2083 35.6 19.325C35.6 19.4417 35.5667 19.5667 35.5 19.7L36.8 20.65L35.7 22.25L34.4 21.55C34.2 21.7167 33.975 21.8833 33.725 22.05C33.475 22.2167 33.2333 22.3667 33 22.5L32.9 23.95H30.9ZM31.9 20.85C32.4333 20.85 32.8833 20.6667 33.25 20.3C33.6167 19.9333 33.8 19.4833 33.8 18.95C33.8 18.4167 33.6167 17.9667 33.25 17.6C32.8833 17.2333 32.4333 17.05 31.9 17.05C31.3667 17.05 30.9167 17.2333 30.55 17.6C30.1833 17.9667 30 18.4167 30 18.95C30 19.4833 30.1833 19.9333 30.55 20.3C30.9167 20.6667 31.3667 20.85 31.9 20.85ZM15.8 20.75C13.6 20.75 11.8 20.0333 10.4 18.6C9 17.1667 8.3 15.3833 8.3 13.25H7.8C7.53333 13.25 7.3 13.15 7.1 12.95C6.9 12.75 6.8 12.5167 6.8 12.25C6.8 11.9833 6.9 11.75 7.1 11.55C7.3 11.35 7.53333 11.25 7.8 11.25H8.3C8.3 9.91667 8.63333 8.71667 9.3 7.65C9.96667 6.58333 10.8333 5.71667 11.9 5.05V7C11.9 7.2 11.975 7.375 12.125 7.525C12.275 7.675 12.45 7.75 12.65 7.75C12.8833 7.75 13.0667 7.675 13.2 7.525C13.3333 7.375 13.4 7.2 13.4 7V4.4C13.6667 4.33333 14.0333 4.275 14.5 4.225C14.9667 4.175 15.4167 4.15 15.85 4.15C16.2833 4.15 16.7333 4.175 17.2 4.225C17.6667 4.275 18.0333 4.33333 18.3 4.4V7C18.3 7.2 18.3667 7.375 18.5 7.525C18.6333 7.675 18.8167 7.75 19.05 7.75C19.25 7.75 19.425 7.675 19.575 7.525C19.725 7.375 19.8 7.2 19.8 7V5.05C20.8667 5.71667 21.7167 6.58333 22.35 7.65C22.9833 8.71667 23.3 9.91667 23.3 11.25H23.8C24.0667 11.25 24.3 11.35 24.5 11.55C24.7 11.75 24.8 11.9833 24.8 12.25C24.8 12.5167 24.7 12.75 24.5 12.95C24.3 13.15 24.0667 13.25 23.8 13.25H23.3C23.3 15.3833 22.6 17.1667 21.2 18.6C19.8 20.0333 18 20.75 15.8 20.75ZM15.8 17.75C17.2 17.75 18.3 17.3333 19.1 16.5C19.9 15.6667 20.3 14.5833 20.3 13.25H11.3C11.3 14.5833 11.7 15.6667 12.5 16.5C13.3 17.3333 14.4 17.75 15.8 17.75ZM0 36V31.4C0 30.2667 0.266667 29.325 0.8 28.575C1.33333 27.825 2.08333 27.2167 3.05 26.75C4.85 25.8833 6.775 25.1667 8.825 24.6C10.875 24.0333 13.2 23.75 15.8 23.75C18.4 23.75 20.725 24.0333 22.775 24.6C24.825 25.1667 26.75 25.8833 28.55 26.75C29.5167 27.2167 30.2667 27.825 30.8 28.575C31.3333 29.325 31.6 30.2667 31.6 31.4V36H0ZM3 33H28.6V31.4C28.6 30.9 28.4583 30.4917 28.175 30.175C27.8917 29.8583 27.55 29.6167 27.15 29.45C25.7167 28.8167 24.1167 28.2083 22.35 27.625C20.5833 27.0417 18.4 26.75 15.8 26.75C13.2 26.75 11.0167 27.0417 9.25 27.625C7.48333 28.2083 5.88333 28.8167 4.45 29.45C4.05 29.6167 3.70833 29.8583 3.425 30.175C3.14167 30.4917 3 30.9 3 31.4V33Z" fill="#D9D9D9"/>
</svg>
